# Blender 4.2.2 LTS
# www.blender.org
mtllib bomber.mtl
o Sphere
v 2.204730 11.083941 0.000001
v 7.991081 7.991081 0.000001
v 9.396519 6.278547 0.000000
v 10.440852 4.324736 0.000000
v 11.083941 2.204730 0.000000
v 11.301091 0.000000 0.000000
v 11.083941 -2.204730 -0.000000
v 10.440852 -4.324736 -0.000000
v 9.396519 -6.278547 -0.000000
v 7.991081 -7.991081 -0.000001
v 6.278547 -9.396519 -0.000001
v 4.324736 -10.440852 -0.000001
v 2.204730 -11.083941 -0.000001
v 2.036909 11.083941 0.843718
v 3.995535 10.440852 1.655012
v 5.800624 9.396519 2.402703
v 7.382788 7.991081 3.058053
v 8.681250 6.278547 3.595895
v 9.646080 4.324735 3.995535
v 10.240224 2.204730 4.241639
v 10.440852 -0.000000 4.324736
v 10.240224 -2.204730 4.241639
v 9.646080 -4.324736 3.995534
v 8.681250 -6.278548 3.595894
v 7.382788 -7.991081 3.058052
v 5.800624 -9.396519 2.402702
v 3.995535 -10.440852 1.655010
v 2.036909 -11.083941 0.843716
v 1.558986 11.083941 1.558986
v 3.058053 10.440852 3.058053
v 4.439600 9.396519 4.439612
v 5.650546 7.991080 5.650546
v 6.644341 6.278547 6.644341
v 7.382788 4.324735 7.382800
v 7.837533 2.204729 7.837533
v 7.991081 -0.000001 7.991081
v 7.837533 -2.204730 7.837533
v 7.382788 -4.324736 7.382799
v 6.644341 -6.278548 6.644341
v 5.650546 -7.991081 5.650545
v 4.439600 -9.396519 4.439611
v 3.058053 -10.440852 3.058052
v 1.558986 -11.083941 1.558985
v 0.843717 11.083941 2.036910
v 1.655011 10.440852 3.995547
v 2.402691 9.396519 5.800624
v 3.058053 7.991080 7.382800
v 3.595894 6.278547 8.681250
v 3.995535 4.324735 9.646091
v 4.241639 2.204729 10.240235
v 4.324736 -0.000001 10.440852
v 4.241639 -2.204731 10.240235
v 3.995535 -4.324737 9.646091
v 3.595894 -6.278548 8.681250
v 3.058053 -7.991081 7.382799
v 2.402691 -9.396519 5.800623
v 1.655011 -10.440852 3.995545
v 0.843717 -11.083941 2.036908
v 0.000000 11.083941 2.204731
v 0.000000 10.440852 4.324748
v 0.000000 9.396519 6.278548
v 0.000000 7.991080 7.991081
v 0.000000 6.278547 9.396519
v 0.000000 4.324735 10.440852
v 0.000000 2.204729 11.083941
v 0.000000 -0.000001 11.301091
v 0.000000 -2.204731 11.083941
v 0.000000 -4.324737 10.440852
v 0.000000 -6.278548 9.396519
v 0.000000 -7.991081 7.991080
v 0.000000 -9.396519 6.278547
v 0.000000 -10.440852 4.324746
v 0.000000 -11.083941 2.204729
v -0.843717 11.083941 2.036910
v -1.655011 10.440852 3.995535
v -2.402702 9.396519 5.800624
v -3.058053 7.991080 7.382800
v -3.595894 6.278547 8.681250
v -3.995546 4.324735 9.646080
v -4.241650 2.204729 10.240235
v -4.324747 -0.000001 10.440841
v -4.241650 -2.204731 10.240235
v -3.995546 -4.324737 9.646080
v -3.595894 -6.278548 8.681250
v -3.058053 -7.991081 7.382799
v -2.402702 -9.396519 5.800623
v -1.655011 -10.440852 3.995534
v -0.843717 -11.083941 2.036908
v -1.558986 11.083941 1.558986
v -3.058053 10.440852 3.058053
v -4.439611 9.396519 4.439612
v -5.650546 7.991080 5.650546
v -6.644341 6.278547 6.644341
v -7.382799 4.324735 7.382788
v -7.837533 2.204729 7.837533
v -7.991081 -0.000001 7.991081
v -7.837533 -2.204730 7.837533
v -7.382799 -4.324736 7.382787
v -6.644341 -6.278548 6.644341
v -5.650546 -7.991081 5.650545
v -4.439611 -9.396519 4.439600
v -3.058053 -10.440852 3.058052
v -1.558986 -11.083941 1.558985
v -2.036909 11.083941 0.843718
v -3.995546 10.440852 1.655012
v -5.800624 9.396519 2.402692
v -7.382799 7.991081 3.058053
v -8.681250 6.278547 3.595895
v -9.646091 4.324735 3.995535
v -10.240235 2.204730 4.241639
v -10.440852 -0.000000 4.324736
v -10.240235 -2.204730 4.241639
v -9.646091 -4.324736 3.995534
v -8.681250 -6.278548 3.595894
v -7.382799 -7.991081 3.058052
v -5.800624 -9.396519 2.402690
v -3.995546 -10.440852 1.655010
v -2.036909 -11.083941 0.843716
v -2.204730 11.083941 0.000001
v -4.324747 10.440852 0.000001
v -6.278547 9.396519 0.000001
v -7.991081 7.991081 0.000001
v -9.396519 6.278547 0.000000
v -10.440852 4.324736 0.000000
v -11.083941 2.204730 0.000000
v -11.301091 0.000000 0.000000
v -11.083941 -2.204730 -0.000000
v -10.440852 -4.324736 -0.000000
v -9.396519 -6.278547 -0.000000
v -7.991081 -7.991081 -0.000001
v -6.278547 -9.396519 -0.000001
v -4.324747 -10.440852 -0.000001
v -2.204730 -11.083941 -0.000001
v 0.000000 -11.301091 -0.000001
v -2.036909 11.083941 -0.843716
v -3.995535 10.440852 -1.655010
v -5.800624 9.396519 -2.402702
v -7.382799 7.991081 -3.058052
v -8.681250 6.278548 -3.595894
v -9.646080 4.324736 -3.995546
v -10.240235 2.204730 -4.241639
v -10.440852 0.000000 -4.324747
v -10.240235 -2.204730 -4.241639
v -9.646080 -4.324735 -3.995546
v -8.681250 -6.278547 -3.595895
v -7.382799 -7.991081 -3.058053
v -5.800624 -9.396519 -2.402703
v -3.995535 -10.440852 -1.655012
v -2.036909 -11.083941 -0.843718
v -1.558986 11.083941 -1.558985
v -3.058053 10.440852 -3.058052
v -4.439600 9.396519 -4.439611
v -5.650546 7.991081 -5.650545
v -6.644341 6.278548 -6.644341
v -7.382788 4.324736 -7.382799
v -7.837533 2.204730 -7.837533
v -7.991081 0.000001 -7.991081
v -7.837533 -2.204729 -7.837533
v -7.382788 -4.324735 -7.382800
v -6.644341 -6.278547 -6.644341
v -5.650546 -7.991080 -5.650546
v -4.439600 -9.396519 -4.439612
v -3.058053 -10.440852 -3.058053
v -1.558986 -11.083941 -1.558986
v 0.000000 11.301091 0.000001
v -0.843717 11.083941 -2.036908
v -1.655011 10.440852 -3.995534
v -2.402691 9.396519 -5.800623
v -3.058053 7.991081 -7.382799
v -3.595894 6.278548 -8.681250
v -3.995535 4.324737 -9.646080
v -4.241639 2.204731 -10.240235
v -4.324736 0.000001 -10.440852
v -4.241639 -2.204729 -10.240235
v -3.995535 -4.324735 -9.646080
v -3.595894 -6.278547 -8.681250
v -3.058053 -7.991080 -7.382800
v -2.402691 -9.396519 -5.800624
v -1.655011 -10.440852 -3.995535
v -0.843717 -11.083941 -2.036910
v 0.000000 11.083941 -2.204729
v 0.000000 10.440852 -4.324735
v 0.000000 9.396519 -6.278547
v 0.000000 7.991081 -7.991080
v 0.000000 6.278548 -9.396519
v 0.000000 4.324737 -10.440841
v 0.000000 2.204731 -11.083941
v 0.000000 0.000001 -11.301091
v 0.000000 -2.204729 -11.083941
v 0.000000 -4.324735 -10.440841
v 0.000000 -6.278547 -9.396519
v 0.000000 -7.991080 -7.991081
v 0.000000 -9.396519 -6.278548
v 0.000000 -10.440852 -4.324737
v 0.000000 -11.083941 -2.204731
v 0.843717 11.083941 -2.036908
v 1.655011 10.440852 -3.995534
v 2.402702 9.396519 -5.800623
v 3.058053 7.991081 -7.382787
v 3.595894 6.278548 -8.681250
v 3.995546 4.324737 -9.646080
v 4.241639 2.204731 -10.240224
v 4.324747 0.000001 -10.440841
v 4.241639 -2.204729 -10.240224
v 3.995546 -4.324735 -9.646080
v 3.595894 -6.278547 -8.681250
v 3.058053 -7.991080 -7.382788
v 2.402702 -9.396519 -5.800624
v 1.655011 -10.440852 -3.995535
v 0.843717 -11.083941 -2.036910
v 1.558986 11.083941 -1.558985
v 3.058053 10.440852 -3.058052
v 4.439611 9.396519 -4.439600
v 5.650546 7.991081 -5.650545
v 6.644341 6.278548 -6.644329
v 7.382799 4.324736 -7.382787
v 7.837533 2.204730 -7.837533
v 7.991081 0.000001 -7.991069
v 7.837533 -2.204729 -7.837533
v 7.382799 -4.324735 -7.382788
v 6.644341 -6.278547 -6.644330
v 5.650546 -7.991080 -5.650546
v 4.439611 -9.396519 -4.439600
v 3.058053 -10.440852 -3.058053
v 1.558986 -11.083941 -1.558986
v 2.036909 11.083941 -0.843716
v 3.995535 10.440852 -1.654999
v 5.800624 9.396519 -2.402690
v 7.382788 7.991081 -3.058052
v 8.681250 6.278548 -3.595882
v 9.646080 4.324736 -3.995534
v 10.240224 2.204730 -4.241639
v 10.440852 0.000000 -4.324736
v 10.240224 -2.204730 -4.241639
v 9.646080 -4.324735 -3.995535
v 8.681250 -6.278547 -3.595883
v 7.382788 -7.991081 -3.058053
v 5.800624 -9.396519 -2.402692
v 3.995535 -10.440852 -1.655000
v 2.036909 -11.083941 -0.843718
v 4.324736 10.440852 0.000001
v 6.278547 9.396519 0.000001
vn -0.0000 -1.0000 -0.0000
vn 0.2068 -0.9784 -0.0000
vn 0.1911 -0.9784 0.0791
vn 1.0000 -0.0000 -0.0000
vn 0.9065 -0.1928 0.3755
vn 0.9812 -0.1928 -0.0000
vn 0.3930 0.9195 -0.0000
vn 0.1911 0.9784 0.0791
vn 0.3631 0.9195 0.1504
vn 0.8552 -0.3784 0.3542
vn 0.9256 -0.3784 -0.0000
vn 0.5639 0.8258 -0.0000
vn 0.5210 0.8258 0.2158
vn 0.7716 -0.5500 0.3196
vn 0.8352 -0.5500 -0.0000
vn 0.6588 0.7011 0.2729
vn 0.7131 0.7011 -0.0000
vn 0.6588 -0.7011 0.2729
vn 0.7131 -0.7011 -0.0000
vn 0.7716 0.5500 0.3196
vn 0.8352 0.5500 -0.0000
vn 0.5639 -0.8258 -0.0000
vn 0.5210 -0.8258 0.2158
vn 0.8552 0.3784 0.3542
vn 0.9256 0.3784 -0.0000
vn 0.3631 -0.9195 0.1504
vn 0.3930 -0.9195 -0.0000
vn 0.9065 0.1928 0.3755
vn 0.9812 0.1928 -0.0000
vn 0.9239 -0.0000 0.3827
vn 0.2068 0.9784 -0.0000
vn -0.0000 1.0000 -0.0000
vn 0.1462 -0.9784 0.1462
vn 0.7071 -0.0000 0.7071
vn 0.1462 0.9784 0.1462
vn 0.6938 -0.1928 0.6938
vn 0.2779 0.9195 0.2779
vn 0.6545 -0.3784 0.6545
vn 0.3987 0.8258 0.3987
vn 0.5905 -0.5500 0.5905
vn 0.5042 0.7011 0.5042
vn 0.5042 -0.7011 0.5042
vn 0.5905 0.5500 0.5905
vn 0.3987 -0.8258 0.3987
vn 0.6545 0.3784 0.6545
vn 0.2779 -0.9195 0.2779
vn 0.6938 0.1928 0.6938
vn 0.2158 0.8258 0.5210
vn 0.2729 0.7011 0.6588
vn 0.2729 -0.7011 0.6588
vn 0.3196 0.5500 0.7716
vn 0.2158 -0.8258 0.5210
vn 0.3542 0.3784 0.8552
vn 0.1504 -0.9195 0.3631
vn 0.3755 0.1928 0.9065
vn 0.0791 -0.9784 0.1911
vn 0.3827 -0.0000 0.9239
vn 0.0791 0.9784 0.1911
vn 0.3755 -0.1928 0.9065
vn 0.1504 0.9195 0.3631
vn 0.3542 -0.3784 0.8552
vn 0.3196 -0.5500 0.7716
vn -0.0000 -0.0000 1.0000
vn -0.0000 0.9784 0.2068
vn -0.0000 -0.9784 0.2068
vn -0.0000 -0.1928 0.9812
vn -0.0000 0.9195 0.3930
vn -0.0000 -0.3784 0.9256
vn -0.0000 0.8258 0.5639
vn -0.0000 -0.5500 0.8352
vn -0.0000 0.7011 0.7131
vn -0.0000 -0.7011 0.7131
vn -0.0000 0.5500 0.8352
vn -0.0000 -0.8258 0.5639
vn -0.0000 0.3784 0.9256
vn -0.0000 -0.9195 0.3930
vn -0.0000 0.1928 0.9812
vn -0.2729 -0.7011 0.6588
vn -0.2729 0.7011 0.6588
vn -0.3196 0.5500 0.7716
vn -0.2158 -0.8258 0.5210
vn -0.3542 0.3784 0.8552
vn -0.1504 -0.9195 0.3631
vn -0.3755 0.1928 0.9065
vn -0.0791 -0.9784 0.1911
vn -0.3827 -0.0000 0.9239
vn -0.0791 0.9784 0.1911
vn -0.3755 -0.1928 0.9065
vn -0.1504 0.9195 0.3631
vn -0.3542 -0.3784 0.8552
vn -0.2158 0.8258 0.5210
vn -0.3196 -0.5500 0.7716
vn -0.1462 -0.9784 0.1462
vn -0.6938 -0.1928 0.6938
vn -0.2779 0.9195 0.2779
vn -0.6545 -0.3784 0.6545
vn -0.3987 0.8258 0.3987
vn -0.5905 -0.5500 0.5905
vn -0.5042 0.7011 0.5042
vn -0.5042 -0.7011 0.5042
vn -0.5905 0.5500 0.5905
vn -0.3987 -0.8258 0.3987
vn -0.6545 0.3784 0.6545
vn -0.2779 -0.9195 0.2779
vn -0.6938 0.1928 0.6938
vn -0.7071 -0.0000 0.7071
vn -0.1462 0.9784 0.1462
vn -0.6588 -0.7011 0.2729
vn -0.5210 -0.8258 0.2158
vn -0.7716 0.5500 0.3196
vn -0.8552 0.3784 0.3542
vn -0.3631 -0.9195 0.1504
vn -0.9065 0.1928 0.3755
vn -0.1911 -0.9784 0.0791
vn -0.9239 -0.0000 0.3827
vn -0.1911 0.9784 0.0791
vn -0.9065 -0.1928 0.3755
vn -0.3631 0.9195 0.1504
vn -0.8552 -0.3784 0.3542
vn -0.5210 0.8258 0.2158
vn -0.7716 -0.5500 0.3196
vn -0.6588 0.7011 0.2729
vn -0.3930 0.9195 -0.0000
vn -0.9812 -0.1928 -0.0000
vn -0.9256 -0.3784 -0.0000
vn -0.5639 0.8258 -0.0000
vn -0.8352 -0.5500 -0.0000
vn -0.7131 0.7011 -0.0000
vn -0.7131 -0.7011 -0.0000
vn -0.8352 0.5500 -0.0000
vn -0.5639 -0.8258 -0.0000
vn -0.9256 0.3784 -0.0000
vn -0.3930 -0.9195 -0.0000
vn -0.9812 0.1928 -0.0000
vn -0.2068 -0.9784 -0.0000
vn -1.0000 -0.0000 -0.0000
vn -0.2068 0.9784 -0.0000
vn -0.7716 0.5500 -0.3196
vn -0.8552 0.3784 -0.3542
vn -0.3631 -0.9195 -0.1504
vn -0.9065 0.1928 -0.3755
vn -0.1911 -0.9784 -0.0791
vn -0.9239 -0.0000 -0.3827
vn -0.1911 0.9784 -0.0791
vn -0.9065 -0.1928 -0.3755
vn -0.3631 0.9195 -0.1504
vn -0.8552 -0.3784 -0.3542
vn -0.5210 0.8258 -0.2158
vn -0.7716 -0.5500 -0.3196
vn -0.6588 0.7011 -0.2729
vn -0.6588 -0.7011 -0.2729
vn -0.5210 -0.8258 -0.2158
vn -0.6938 -0.1928 -0.6938
vn -0.6545 -0.3784 -0.6545
vn -0.2779 0.9195 -0.2779
vn -0.3987 0.8258 -0.3987
vn -0.5905 -0.5500 -0.5905
vn -0.5042 0.7011 -0.5042
vn -0.5042 -0.7011 -0.5042
vn -0.5905 0.5500 -0.5905
vn -0.3987 -0.8258 -0.3987
vn -0.6545 0.3784 -0.6545
vn -0.2779 -0.9195 -0.2779
vn -0.6938 0.1928 -0.6938
vn -0.1462 -0.9784 -0.1462
vn -0.7071 -0.0000 -0.7071
vn -0.1462 0.9784 -0.1462
vn -0.2158 -0.8258 -0.5210
vn -0.1504 -0.9195 -0.3631
vn -0.3755 0.1928 -0.9065
vn -0.0791 -0.9784 -0.1911
vn -0.3827 -0.0000 -0.9239
vn -0.0791 0.9784 -0.1911
vn -0.3755 -0.1928 -0.9065
vn -0.1504 0.9195 -0.3631
vn -0.3542 -0.3784 -0.8552
vn -0.2158 0.8258 -0.5210
vn -0.3196 -0.5500 -0.7716
vn -0.2729 0.7011 -0.6588
vn -0.2729 -0.7011 -0.6588
vn -0.3196 0.5500 -0.7716
vn -0.3542 0.3784 -0.8552
vn -0.0000 0.8258 -0.5639
vn -0.0000 -0.5500 -0.8352
vn -0.0000 0.7011 -0.7131
vn -0.0000 -0.7011 -0.7131
vn -0.0000 0.5500 -0.8352
vn -0.0000 -0.8258 -0.5639
vn -0.0000 0.3784 -0.9256
vn -0.0000 -0.9195 -0.3930
vn -0.0000 0.1928 -0.9812
vn -0.0000 -0.9784 -0.2068
vn -0.0000 -0.0000 -1.0000
vn -0.0000 0.9784 -0.2068
vn -0.0000 -0.1928 -0.9812
vn -0.0000 0.9195 -0.3930
vn -0.0000 -0.3784 -0.9256
vn 0.3755 0.1928 -0.9065
vn 0.0791 -0.9784 -0.1911
vn 0.3827 -0.0000 -0.9239
vn 0.0791 0.9784 -0.1911
vn 0.3755 -0.1928 -0.9065
vn 0.1504 0.9195 -0.3631
vn 0.3542 -0.3784 -0.8552
vn 0.2158 0.8258 -0.5210
vn 0.3196 -0.5500 -0.7716
vn 0.2729 0.7011 -0.6588
vn 0.2729 -0.7011 -0.6588
vn 0.3196 0.5500 -0.7716
vn 0.2158 -0.8258 -0.5210
vn 0.3542 0.3784 -0.8552
vn 0.1504 -0.9195 -0.3631
vn 0.5905 -0.5500 -0.5905
vn 0.5042 0.7011 -0.5042
vn 0.5042 -0.7011 -0.5042
vn 0.5905 0.5500 -0.5905
vn 0.3987 -0.8258 -0.3987
vn 0.6545 0.3784 -0.6545
vn 0.2779 -0.9195 -0.2779
vn 0.6938 0.1928 -0.6938
vn 0.1462 -0.9784 -0.1462
vn 0.7071 -0.0000 -0.7071
vn 0.1462 0.9784 -0.1462
vn 0.6938 -0.1928 -0.6938
vn 0.2779 0.9195 -0.2779
vn 0.6545 -0.3784 -0.6545
vn 0.3987 0.8258 -0.3987
vn 0.1911 -0.9784 -0.0791
vn 0.9065 0.1928 -0.3755
vn 0.9239 -0.0000 -0.3827
vn 0.1911 0.9784 -0.0791
vn 0.9065 -0.1928 -0.3755
vn 0.3631 0.9195 -0.1504
vn 0.8552 -0.3784 -0.3542
vn 0.5210 0.8258 -0.2158
vn 0.7716 -0.5500 -0.3196
vn 0.6588 0.7011 -0.2729
vn 0.6588 -0.7011 -0.2729
vn 0.7716 0.5500 -0.3196
vn 0.5210 -0.8258 -0.2158
vn 0.8552 0.3784 -0.3542
vn 0.3631 -0.9195 -0.1504
vt 0.718750 0.000000
vt 0.750000 0.062500
vt 0.687500 0.062500
vt 0.750000 0.500000
vt 0.687500 0.437500
vt 0.750000 0.437500
vt 0.750000 0.875000
vt 0.687500 0.937500
vt 0.687500 0.875000
vt 0.687500 0.375000
vt 0.750000 0.375000
vt 0.750000 0.812500
vt 0.687500 0.812500
vt 0.687500 0.312500
vt 0.750000 0.312500
vt 0.687500 0.750000
vt 0.750000 0.750000
vt 0.687500 0.250000
vt 0.750000 0.250000
vt 0.687500 0.687500
vt 0.750000 0.687500
vt 0.750000 0.187500
vt 0.687500 0.187500
vt 0.687500 0.625000
vt 0.750000 0.625000
vt 0.687500 0.125000
vt 0.750000 0.125000
vt 0.687500 0.562500
vt 0.750000 0.562500
vt 0.687500 0.500000
vt 0.750000 0.937500
vt 0.718750 1.000000
vt 0.625000 0.062500
vt 0.625000 0.500000
vt 0.656250 1.000000
vt 0.625000 0.937500
vt 0.656250 0.000000
vt 0.625000 0.437500
vt 0.625000 0.875000
vt 0.625000 0.375000
vt 0.625000 0.812500
vt 0.625000 0.312500
vt 0.625000 0.750000
vt 0.625000 0.250000
vt 0.625000 0.687500
vt 0.625000 0.187500
vt 0.625000 0.625000
vt 0.625000 0.125000
vt 0.625000 0.562500
vt 0.562500 0.812500
vt 0.562500 0.750000
vt 0.562500 0.250000
vt 0.562500 0.687500
vt 0.562500 0.187500
vt 0.562500 0.625000
vt 0.562500 0.125000
vt 0.562500 0.562500
vt 0.562500 0.062500
vt 0.562500 0.500000
vt 0.593750 1.000000
vt 0.562500 0.937500
vt 0.593750 0.000000
vt 0.562500 0.437500
vt 0.562500 0.875000
vt 0.562500 0.375000
vt 0.562500 0.312500
vt 0.500000 0.500000
vt 0.531250 1.000000
vt 0.500000 0.937500
vt 0.531250 0.000000
vt 0.500000 0.062500
vt 0.500000 0.437500
vt 0.500000 0.875000
vt 0.500000 0.375000
vt 0.500000 0.812500
vt 0.500000 0.312500
vt 0.500000 0.750000
vt 0.500000 0.250000
vt 0.500000 0.687500
vt 0.500000 0.187500
vt 0.500000 0.625000
vt 0.500000 0.125000
vt 0.500000 0.562500
vt 0.437500 0.250000
vt 0.437500 0.750000
vt 0.437500 0.687500
vt 0.437500 0.187500
vt 0.437500 0.625000
vt 0.437500 0.125000
vt 0.437500 0.562500
vt 0.437500 0.062500
vt 0.437500 0.500000
vt 0.468750 1.000000
vt 0.437500 0.937500
vt 0.468750 0.000000
vt 0.437500 0.437500
vt 0.437500 0.875000
vt 0.437500 0.375000
vt 0.437500 0.812500
vt 0.437500 0.312500
vt 0.406250 0.000000
vt 0.375000 0.062500
vt 0.375000 0.437500
vt 0.375000 0.875000
vt 0.375000 0.375000
vt 0.375000 0.812500
vt 0.375000 0.312500
vt 0.375000 0.750000
vt 0.375000 0.250000
vt 0.375000 0.687500
vt 0.375000 0.187500
vt 0.375000 0.625000
vt 0.375000 0.125000
vt 0.375000 0.562500
vt 0.375000 0.500000
vt 0.406250 1.000000
vt 0.375000 0.937500
vt 0.312500 0.250000
vt 0.312500 0.187500
vt 0.312500 0.687500
vt 0.312500 0.625000
vt 0.312500 0.125000
vt 0.312500 0.562500
vt 0.312500 0.062500
vt 0.312500 0.500000
vt 0.343750 1.000000
vt 0.312500 0.937500
vt 0.343750 0.000000
vt 0.312500 0.437500
vt 0.312500 0.875000
vt 0.312500 0.375000
vt 0.312500 0.812500
vt 0.312500 0.312500
vt 0.312500 0.750000
vt 0.250000 0.875000
vt 0.250000 0.437500
vt 0.250000 0.375000
vt 0.250000 0.812500
vt 0.250000 0.312500
vt 0.250000 0.750000
vt 0.250000 0.250000
vt 0.250000 0.687500
vt 0.250000 0.187500
vt 0.250000 0.625000
vt 0.250000 0.125000
vt 0.250000 0.562500
vt 0.250000 0.062500
vt 0.250000 0.500000
vt 0.281250 1.000000
vt 0.250000 0.937500
vt 0.281250 0.000000
vt 0.187500 0.687500
vt 0.187500 0.625000
vt 0.187500 0.125000
vt 0.187500 0.562500
vt 0.187500 0.062500
vt 0.187500 0.500000
vt 0.218750 1.000000
vt 0.187500 0.937500
vt 0.218750 0.000000
vt 0.187500 0.437500
vt 0.187500 0.875000
vt 0.187500 0.375000
vt 0.187500 0.812500
vt 0.187500 0.312500
vt 0.187500 0.750000
vt 0.187500 0.250000
vt 0.187500 0.187500
vt 0.125000 0.437500
vt 0.125000 0.375000
vt 0.125000 0.875000
vt 0.125000 0.812500
vt 0.125000 0.312500
vt 0.125000 0.750000
vt 0.125000 0.250000
vt 0.125000 0.687500
vt 0.125000 0.187500
vt 0.125000 0.625000
vt 0.125000 0.125000
vt 0.125000 0.562500
vt 0.125000 0.062500
vt 0.125000 0.500000
vt 0.156250 1.000000
vt 0.125000 0.937500
vt 0.156250 0.000000
vt 0.062500 0.187500
vt 0.062500 0.125000
vt 0.062500 0.562500
vt 0.062500 0.062500
vt 0.062500 0.500000
vt 0.093750 1.000000
vt 0.062500 0.937500
vt 0.093750 0.000000
vt 0.062500 0.437500
vt 0.062500 0.875000
vt 0.062500 0.375000
vt 0.062500 0.812500
vt 0.062500 0.312500
vt 0.062500 0.750000
vt 0.062500 0.250000
vt 0.062500 0.687500
vt 0.062500 0.625000
vt 0.000000 0.812500
vt 0.000000 0.312500
vt 0.000000 0.750000
vt 0.000000 0.250000
vt 0.000000 0.687500
vt 0.000000 0.187500
vt 0.000000 0.625000
vt 0.000000 0.125000
vt 0.000000 0.562500
vt 0.000000 0.062500
vt 0.000000 0.500000
vt 0.031250 1.000000
vt 0.000000 0.937500
vt 0.031250 0.000000
vt 0.000000 0.437500
vt 0.000000 0.875000
vt 0.000000 0.375000
vt 1.000000 0.625000
vt 0.937500 0.562500
vt 1.000000 0.562500
vt 1.000000 0.125000
vt 0.937500 0.062500
vt 1.000000 0.062500
vt 1.000000 0.500000
vt 0.937500 0.500000
vt 1.000000 0.937500
vt 0.968750 1.000000
vt 0.937500 0.937500
vt 0.968750 0.000000
vt 0.937500 0.437500
vt 1.000000 0.437500
vt 0.937500 0.875000
vt 1.000000 0.875000
vt 1.000000 0.375000
vt 0.937500 0.375000
vt 0.937500 0.812500
vt 1.000000 0.812500
vt 0.937500 0.312500
vt 1.000000 0.312500
vt 0.937500 0.750000
vt 1.000000 0.750000
vt 1.000000 0.250000
vt 0.937500 0.250000
vt 0.937500 0.687500
vt 1.000000 0.687500
vt 1.000000 0.187500
vt 0.937500 0.187500
vt 0.937500 0.625000
vt 0.937500 0.125000
vt 0.875000 0.312500
vt 0.875000 0.750000
vt 0.875000 0.250000
vt 0.875000 0.687500
vt 0.875000 0.187500
vt 0.875000 0.625000
vt 0.875000 0.125000
vt 0.875000 0.562500
vt 0.875000 0.062500
vt 0.875000 0.500000
vt 0.906250 1.000000
vt 0.875000 0.937500
vt 0.906250 0.000000
vt 0.875000 0.437500
vt 0.875000 0.875000
vt 0.875000 0.375000
vt 0.875000 0.812500
vt 0.812500 0.062500
vt 0.812500 0.562500
vt 0.812500 0.500000
vt 0.843750 1.000000
vt 0.812500 0.937500
vt 0.843750 0.000000
vt 0.812500 0.437500
vt 0.812500 0.875000
vt 0.812500 0.375000
vt 0.812500 0.812500
vt 0.812500 0.312500
vt 0.812500 0.750000
vt 0.812500 0.250000
vt 0.812500 0.687500
vt 0.812500 0.187500
vt 0.812500 0.625000
vt 0.812500 0.125000
vt 0.781250 1.000000
vt 0.781250 0.000000
s 1
f 134/1/1 13/2/2 28/3/3
f 6/4/4 22/5/5 7/6/6
f 241/7/7 14/8/8 15/9/9
f 7/6/6 23/10/10 8/11/11
f 242/12/12 15/9/9 16/13/13
f 8/11/11 24/14/14 9/15/15
f 242/12/12 17/16/16 2/17/17
f 9/15/15 25/18/18 10/19/19
f 2/17/17 18/20/20 3/21/21
f 11/22/22 25/18/18 26/23/23
f 3/21/21 19/24/24 4/25/25
f 11/22/22 27/26/26 12/27/27
f 4/25/25 20/28/28 5/29/29
f 12/27/27 28/3/3 13/2/2
f 5/29/29 21/30/30 6/4/4
f 1/31/31 165/32/32 14/8/8
f 27/26/26 43/33/33 28/3/3
f 20/28/28 36/34/34 21/30/30
f 14/8/8 165/35/32 29/36/35
f 134/37/1 28/3/3 43/33/33
f 21/30/30 37/38/36 22/5/5
f 14/8/8 30/39/37 15/9/9
f 22/5/5 38/40/38 23/10/10
f 16/13/13 30/39/37 31/41/39
f 23/10/10 39/42/40 24/14/14
f 16/13/13 32/43/41 17/16/16
f 24/14/14 40/44/42 25/18/18
f 18/20/20 32/43/41 33/45/43
f 25/18/18 41/46/44 26/23/23
f 18/20/20 34/47/45 19/24/24
f 26/23/23 42/48/46 27/26/26
f 20/28/28 34/47/45 35/49/47
f 32/43/41 46/50/48 47/51/49
f 39/42/40 55/52/50 40/44/42
f 32/43/41 48/53/51 33/45/43
f 40/44/42 56/54/52 41/46/44
f 34/47/45 48/53/51 49/55/53
f 41/46/44 57/56/54 42/48/46
f 34/47/45 50/57/55 35/49/47
f 42/48/46 58/58/56 43/33/33
f 35/49/47 51/59/57 36/34/34
f 29/36/35 165/60/32 44/61/58
f 134/62/1 43/33/33 58/58/56
f 36/34/34 52/63/59 37/38/36
f 29/36/35 45/64/60 30/39/37
f 37/38/36 53/65/61 38/40/38
f 31/41/39 45/64/60 46/50/48
f 38/40/38 54/66/62 39/42/40
f 50/57/55 66/67/63 51/59/57
f 44/61/58 165/68/32 59/69/64
f 134/70/1 58/58/56 73/71/65
f 51/59/57 67/72/66 52/63/59
f 44/61/58 60/73/67 45/64/60
f 52/63/59 68/74/68 53/65/61
f 45/64/60 61/75/69 46/50/48
f 53/65/61 69/76/70 54/66/62
f 47/51/49 61/75/69 62/77/71
f 54/66/62 70/78/72 55/52/50
f 47/51/49 63/79/73 48/53/51
f 55/52/50 71/80/74 56/54/52
f 49/55/53 63/79/73 64/81/75
f 56/54/52 72/82/76 57/56/54
f 50/57/55 64/81/75 65/83/77
f 57/56/54 73/71/65 58/58/56
f 69/76/70 85/84/78 70/78/72
f 63/79/73 77/85/79 78/86/80
f 70/78/72 86/87/81 71/80/74
f 63/79/73 79/88/82 64/81/75
f 72/82/76 86/87/81 87/89/83
f 64/81/75 80/90/84 65/83/77
f 72/82/76 88/91/85 73/71/65
f 66/67/63 80/90/84 81/92/86
f 59/69/64 165/93/32 74/94/87
f 134/95/1 73/71/65 88/91/85
f 66/67/63 82/96/88 67/72/66
f 59/69/64 75/97/89 60/73/67
f 67/72/66 83/98/90 68/74/68
f 61/75/69 75/97/89 76/99/91
f 68/74/68 84/100/92 69/76/70
f 62/77/71 76/99/91 77/85/79
f 134/101/1 88/91/85 103/102/93
f 81/92/86 97/103/94 82/96/88
f 74/94/87 90/104/95 75/97/89
f 82/96/88 98/105/96 83/98/90
f 75/97/89 91/106/97 76/99/91
f 83/98/90 99/107/98 84/100/92
f 76/99/91 92/108/99 77/85/79
f 84/100/92 100/109/100 85/84/78
f 78/86/80 92/108/99 93/110/101
f 85/84/78 101/111/102 86/87/81
f 78/86/80 94/112/103 79/88/82
f 87/89/83 101/111/102 102/113/104
f 79/88/82 95/114/105 80/90/84
f 88/91/85 102/113/104 103/102/93
f 80/90/84 96/115/106 81/92/86
f 74/94/87 165/116/32 89/117/107
f 101/111/102 115/118/108 116/119/109
f 94/112/103 108/120/110 109/121/111
f 102/113/104 116/119/109 117/122/112
f 94/112/103 110/123/113 95/114/105
f 102/113/104 118/124/114 103/102/93
f 96/115/106 110/123/113 111/125/115
f 89/117/107 165/126/32 104/127/116
f 134/128/1 103/102/93 118/124/114
f 96/115/106 112/129/117 97/103/94
f 89/117/107 105/130/118 90/104/95
f 98/105/96 112/129/117 113/131/119
f 90/104/95 106/132/120 91/106/97
f 98/105/96 114/133/121 99/107/98
f 91/106/97 107/134/122 92/108/99
f 99/107/98 115/118/108 100/109/100
f 92/108/99 108/120/110 93/110/101
f 104/127/116 120/135/123 105/130/118
f 113/131/119 127/136/124 128/137/125
f 105/130/118 121/138/126 106/132/120
f 113/131/119 129/139/127 114/133/121
f 106/132/120 122/140/128 107/134/122
f 114/133/121 130/141/129 115/118/108
f 107/134/122 123/142/130 108/120/110
f 116/119/109 130/141/129 131/143/131
f 109/121/111 123/142/130 124/144/132
f 117/122/112 131/143/131 132/145/133
f 109/121/111 125/146/134 110/123/113
f 118/124/114 132/145/133 133/147/135
f 111/125/115 125/146/134 126/148/136
f 104/127/116 165/149/32 119/150/137
f 134/151/1 118/124/114 133/147/135
f 111/125/115 127/136/124 112/129/117
f 124/144/132 139/152/138 140/153/139
f 131/143/131 148/154/140 132/145/133
f 124/144/132 141/155/141 125/146/134
f 133/147/135 148/154/140 149/156/142
f 126/148/136 141/155/141 142/157/143
f 119/150/137 165/158/32 135/159/144
f 134/160/1 133/147/135 149/156/142
f 126/148/136 143/161/145 127/136/124
f 119/150/137 136/162/146 120/135/123
f 128/137/125 143/161/145 144/163/147
f 120/135/123 137/164/148 121/138/126
f 128/137/125 145/165/149 129/139/127
f 121/138/126 138/166/150 122/140/128
f 129/139/127 146/167/151 130/141/129
f 122/140/128 139/152/138 123/142/130
f 130/141/129 147/168/152 131/143/131
f 144/163/147 158/169/153 159/170/154
f 137/164/148 151/171/155 152/172/156
f 144/163/147 160/173/157 145/165/149
f 137/164/148 153/174/158 138/166/150
f 145/165/149 161/175/159 146/167/151
f 139/152/138 153/174/158 154/176/160
f 147/168/152 161/175/159 162/177/161
f 140/153/139 154/176/160 155/178/162
f 148/154/140 162/177/161 163/179/163
f 140/153/139 156/180/164 141/155/141
f 149/156/142 163/179/163 164/181/165
f 142/157/143 156/180/164 157/182/166
f 135/159/144 165/183/32 150/184/167
f 134/185/1 149/156/142 164/181/165
f 142/157/143 158/169/153 143/161/145
f 135/159/144 151/171/155 136/162/146
f 163/179/163 178/186/168 179/187/169
f 155/178/162 172/188/170 156/180/164
f 163/179/163 180/189/171 164/181/165
f 157/182/166 172/188/170 173/190/172
f 150/184/167 165/191/32 166/192/173
f 134/193/1 164/181/165 180/189/171
f 157/182/166 174/194/174 158/169/153
f 150/184/167 167/195/175 151/171/155
f 159/170/154 174/194/174 175/196/176
f 152/172/156 167/195/175 168/197/177
f 159/170/154 176/198/178 160/173/157
f 152/172/156 169/199/179 153/174/158
f 160/173/157 177/200/180 161/175/159
f 153/174/158 170/201/181 154/176/160
f 162/177/161 177/200/180 178/186/168
f 155/178/162 170/201/181 171/202/182
f 167/195/175 183/203/183 168/197/177
f 175/196/176 191/204/184 176/198/178
f 168/197/177 184/205/185 169/199/179
f 177/200/180 191/204/184 192/206/186
f 170/201/181 184/205/185 185/207/187
f 178/186/168 192/206/186 193/208/188
f 171/202/182 185/207/187 186/209/189
f 178/186/168 194/210/190 179/187/169
f 171/202/182 187/211/191 172/188/170
f 180/189/171 194/210/190 195/212/192
f 173/190/172 187/211/191 188/213/193
f 166/192/173 165/214/32 181/215/194
f 134/216/1 180/189/171 195/212/192
f 173/190/172 189/217/195 174/194/174
f 166/192/173 182/218/196 167/195/175
f 175/196/176 189/217/195 190/219/197
f 186/220/189 202/221/198 187/222/191
f 194/223/190 210/224/199 195/225/192
f 188/226/193 202/221/198 203/227/200
f 181/228/194 165/229/32 196/230/201
f 134/231/1 195/225/192 210/224/199
f 188/226/193 204/232/202 189/233/195
f 181/228/194 197/234/203 182/235/196
f 190/236/197 204/232/202 205/237/204
f 182/235/196 198/238/205 183/239/183
f 190/236/197 206/240/206 191/241/184
f 183/239/183 199/242/207 184/243/185
f 192/244/186 206/240/206 207/245/208
f 184/243/185 200/246/209 185/247/187
f 193/248/188 207/245/208 208/249/210
f 186/220/189 200/246/209 201/250/211
f 193/248/188 209/251/212 194/223/190
f 205/237/204 221/252/213 206/240/206
f 198/238/205 214/253/214 199/242/207
f 207/245/208 221/252/213 222/254/215
f 199/242/207 215/255/216 200/246/209
f 208/249/210 222/254/215 223/256/217
f 201/250/211 215/255/216 216/257/218
f 208/249/210 224/258/219 209/251/212
f 201/250/211 217/259/220 202/221/198
f 209/251/212 225/260/221 210/224/199
f 203/227/200 217/259/220 218/261/222
f 196/230/201 165/262/32 211/263/223
f 134/264/1 210/224/199 225/260/221
f 203/227/200 219/265/224 204/232/202
f 196/230/201 212/266/225 197/234/203
f 205/237/204 219/265/224 220/267/226
f 198/238/205 212/266/225 213/268/227
f 224/258/219 240/269/228 225/260/221
f 218/261/222 232/270/229 233/271/230
f 211/263/223 165/272/32 226/273/231
f 134/274/1 225/260/221 240/269/228
f 218/261/222 234/275/232 219/265/224
f 211/263/223 227/276/233 212/266/225
f 220/267/226 234/275/232 235/277/234
f 212/266/225 228/278/235 213/268/227
f 220/267/226 236/279/236 221/252/213
f 213/268/227 229/280/237 214/253/214
f 221/252/213 237/281/238 222/254/215
f 214/253/214 230/282/239 215/255/216
f 223/256/217 237/281/238 238/283/240
f 216/257/218 230/282/239 231/284/241
f 224/258/219 238/283/240 239/285/242
f 216/257/218 232/270/229 217/259/220
f 236/279/236 10/19/19 237/281/238
f 230/282/239 2/17/17 3/21/21
f 237/281/238 11/22/22 238/283/240
f 231/284/241 3/21/21 4/25/25
f 238/283/240 12/27/27 239/285/242
f 231/284/241 5/29/29 232/270/229
f 239/285/242 13/2/2 240/269/228
f 233/271/230 5/29/29 6/4/4
f 226/273/231 165/286/32 1/31/31
f 134/287/1 240/269/228 13/2/2
f 233/271/230 7/6/6 234/275/232
f 227/276/233 1/31/31 241/7/7
f 234/275/232 8/11/11 235/277/234
f 227/276/233 242/12/12 228/278/235
f 235/277/234 9/15/15 236/279/236
f 228/278/235 2/17/17 229/280/237
f 6/4/4 21/30/30 22/5/5
f 241/7/7 1/31/31 14/8/8
f 7/6/6 22/5/5 23/10/10
f 242/12/12 241/7/7 15/9/9
f 8/11/11 23/10/10 24/14/14
f 242/12/12 16/13/13 17/16/16
f 9/15/15 24/14/14 25/18/18
f 2/17/17 17/16/16 18/20/20
f 11/22/22 10/19/19 25/18/18
f 3/21/21 18/20/20 19/24/24
f 11/22/22 26/23/23 27/26/26
f 4/25/25 19/24/24 20/28/28
f 12/27/27 27/26/26 28/3/3
f 5/29/29 20/28/28 21/30/30
f 27/26/26 42/48/46 43/33/33
f 20/28/28 35/49/47 36/34/34
f 21/30/30 36/34/34 37/38/36
f 14/8/8 29/36/35 30/39/37
f 22/5/5 37/38/36 38/40/38
f 16/13/13 15/9/9 30/39/37
f 23/10/10 38/40/38 39/42/40
f 16/13/13 31/41/39 32/43/41
f 24/14/14 39/42/40 40/44/42
f 18/20/20 17/16/16 32/43/41
f 25/18/18 40/44/42 41/46/44
f 18/20/20 33/45/43 34/47/45
f 26/23/23 41/46/44 42/48/46
f 20/28/28 19/24/24 34/47/45
f 32/43/41 31/41/39 46/50/48
f 39/42/40 54/66/62 55/52/50
f 32/43/41 47/51/49 48/53/51
f 40/44/42 55/52/50 56/54/52
f 34/47/45 33/45/43 48/53/51
f 41/46/44 56/54/52 57/56/54
f 34/47/45 49/55/53 50/57/55
f 42/48/46 57/56/54 58/58/56
f 35/49/47 50/57/55 51/59/57
f 36/34/34 51/59/57 52/63/59
f 29/36/35 44/61/58 45/64/60
f 37/38/36 52/63/59 53/65/61
f 31/41/39 30/39/37 45/64/60
f 38/40/38 53/65/61 54/66/62
f 50/57/55 65/83/77 66/67/63
f 51/59/57 66/67/63 67/72/66
f 44/61/58 59/69/64 60/73/67
f 52/63/59 67/72/66 68/74/68
f 45/64/60 60/73/67 61/75/69
f 53/65/61 68/74/68 69/76/70
f 47/51/49 46/50/48 61/75/69
f 54/66/62 69/76/70 70/78/72
f 47/51/49 62/77/71 63/79/73
f 55/52/50 70/78/72 71/80/74
f 49/55/53 48/53/51 63/79/73
f 56/54/52 71/80/74 72/82/76
f 50/57/55 49/55/53 64/81/75
f 57/56/54 72/82/76 73/71/65
f 69/76/70 84/100/92 85/84/78
f 63/79/73 62/77/71 77/85/79
f 70/78/72 85/84/78 86/87/81
f 63/79/73 78/86/80 79/88/82
f 72/82/76 71/80/74 86/87/81
f 64/81/75 79/88/82 80/90/84
f 72/82/76 87/89/83 88/91/85
f 66/67/63 65/83/77 80/90/84
f 66/67/63 81/92/86 82/96/88
f 59/69/64 74/94/87 75/97/89
f 67/72/66 82/96/88 83/98/90
f 61/75/69 60/73/67 75/97/89
f 68/74/68 83/98/90 84/100/92
f 62/77/71 61/75/69 76/99/91
f 81/92/86 96/115/106 97/103/94
f 74/94/87 89/117/107 90/104/95
f 82/96/88 97/103/94 98/105/96
f 75/97/89 90/104/95 91/106/97
f 83/98/90 98/105/96 99/107/98
f 76/99/91 91/106/97 92/108/99
f 84/100/92 99/107/98 100/109/100
f 78/86/80 77/85/79 92/108/99
f 85/84/78 100/109/100 101/111/102
f 78/86/80 93/110/101 94/112/103
f 87/89/83 86/87/81 101/111/102
f 79/88/82 94/112/103 95/114/105
f 88/91/85 87/89/83 102/113/104
f 80/90/84 95/114/105 96/115/106
f 101/111/102 100/109/100 115/118/108
f 94/112/103 93/110/101 108/120/110
f 102/113/104 101/111/102 116/119/109
f 94/112/103 109/121/111 110/123/113
f 102/113/104 117/122/112 118/124/114
f 96/115/106 95/114/105 110/123/113
f 96/115/106 111/125/115 112/129/117
f 89/117/107 104/127/116 105/130/118
f 98/105/96 97/103/94 112/129/117
f 90/104/95 105/130/118 106/132/120
f 98/105/96 113/131/119 114/133/121
f 91/106/97 106/132/120 107/134/122
f 99/107/98 114/133/121 115/118/108
f 92/108/99 107/134/122 108/120/110
f 104/127/116 119/150/137 120/135/123
f 113/131/119 112/129/117 127/136/124
f 105/130/118 120/135/123 121/138/126
f 113/131/119 128/137/125 129/139/127
f 106/132/120 121/138/126 122/140/128
f 114/133/121 129/139/127 130/141/129
f 107/134/122 122/140/128 123/142/130
f 116/119/109 115/118/108 130/141/129
f 109/121/111 108/120/110 123/142/130
f 117/122/112 116/119/109 131/143/131
f 109/121/111 124/144/132 125/146/134
f 118/124/114 117/122/112 132/145/133
f 111/125/115 110/123/113 125/146/134
f 111/125/115 126/148/136 127/136/124
f 124/144/132 123/142/130 139/152/138
f 131/143/131 147/168/152 148/154/140
f 124/144/132 140/153/139 141/155/141
f 133/147/135 132/145/133 148/154/140
f 126/148/136 125/146/134 141/155/141
f 126/148/136 142/157/143 143/161/145
f 119/150/137 135/159/144 136/162/146
f 128/137/125 127/136/124 143/161/145
f 120/135/123 136/162/146 137/164/148
f 128/137/125 144/163/147 145/165/149
f 121/138/126 137/164/148 138/166/150
f 129/139/127 145/165/149 146/167/151
f 122/140/128 138/166/150 139/152/138
f 130/141/129 146/167/151 147/168/152
f 144/163/147 143/161/145 158/169/153
f 137/164/148 136/162/146 151/171/155
f 144/163/147 159/170/154 160/173/157
f 137/164/148 152/172/156 153/174/158
f 145/165/149 160/173/157 161/175/159
f 139/152/138 138/166/150 153/174/158
f 147/168/152 146/167/151 161/175/159
f 140/153/139 139/152/138 154/176/160
f 148/154/140 147/168/152 162/177/161
f 140/153/139 155/178/162 156/180/164
f 149/156/142 148/154/140 163/179/163
f 142/157/143 141/155/141 156/180/164
f 142/157/143 157/182/166 158/169/153
f 135/159/144 150/184/167 151/171/155
f 163/179/163 162/177/161 178/186/168
f 155/178/162 171/202/182 172/188/170
f 163/179/163 179/187/169 180/189/171
f 157/182/166 156/180/164 172/188/170
f 157/182/166 173/190/172 174/194/174
f 150/184/167 166/192/173 167/195/175
f 159/170/154 158/169/153 174/194/174
f 152/172/156 151/171/155 167/195/175
f 159/170/154 175/196/176 176/198/178
f 152/172/156 168/197/177 169/199/179
f 160/173/157 176/198/178 177/200/180
f 153/174/158 169/199/179 170/201/181
f 162/177/161 161/175/159 177/200/180
f 155/178/162 154/176/160 170/201/181
f 167/195/175 182/218/196 183/203/183
f 175/196/176 190/219/197 191/204/184
f 168/197/177 183/203/183 184/205/185
f 177/200/180 176/198/178 191/204/184
f 170/201/181 169/199/179 184/205/185
f 178/186/168 177/200/180 192/206/186
f 171/202/182 170/201/181 185/207/187
f 178/186/168 193/208/188 194/210/190
f 171/202/182 186/209/189 187/211/191
f 180/189/171 179/187/169 194/210/190
f 173/190/172 172/188/170 187/211/191
f 173/190/172 188/213/193 189/217/195
f 166/192/173 181/215/194 182/218/196
f 175/196/176 174/194/174 189/217/195
f 186/220/189 201/250/211 202/221/198
f 194/223/190 209/251/212 210/224/199
f 188/226/193 187/222/191 202/221/198
f 188/226/193 203/227/200 204/232/202
f 181/228/194 196/230/201 197/234/203
f 190/236/197 189/233/195 204/232/202
f 182/235/196 197/234/203 198/238/205
f 190/236/197 205/237/204 206/240/206
f 183/239/183 198/238/205 199/242/207
f 192/244/186 191/241/184 206/240/206
f 184/243/185 199/242/207 200/246/209
f 193/248/188 192/244/186 207/245/208
f 186/220/189 185/247/187 200/246/209
f 193/248/188 208/249/210 209/251/212
f 205/237/204 220/267/226 221/252/213
f 198/238/205 213/268/227 214/253/214
f 207/245/208 206/240/206 221/252/213
f 199/242/207 214/253/214 215/255/216
f 208/249/210 207/245/208 222/254/215
f 201/250/211 200/246/209 215/255/216
f 208/249/210 223/256/217 224/258/219
f 201/250/211 216/257/218 217/259/220
f 209/251/212 224/258/219 225/260/221
f 203/227/200 202/221/198 217/259/220
f 203/227/200 218/261/222 219/265/224
f 196/230/201 211/263/223 212/266/225
f 205/237/204 204/232/202 219/265/224
f 198/238/205 197/234/203 212/266/225
f 224/258/219 239/285/242 240/269/228
f 218/261/222 217/259/220 232/270/229
f 218/261/222 233/271/230 234/275/232
f 211/263/223 226/273/231 227/276/233
f 220/267/226 219/265/224 234/275/232
f 212/266/225 227/276/233 228/278/235
f 220/267/226 235/277/234 236/279/236
f 213/268/227 228/278/235 229/280/237
f 221/252/213 236/279/236 237/281/238
f 214/253/214 229/280/237 230/282/239
f 223/256/217 222/254/215 237/281/238
f 216/257/218 215/255/216 230/282/239
f 224/258/219 223/256/217 238/283/240
f 216/257/218 231/284/241 232/270/229
f 236/279/236 9/15/15 10/19/19
f 230/282/239 229/280/237 2/17/17
f 237/281/238 10/19/19 11/22/22
f 231/284/241 230/282/239 3/21/21
f 238/283/240 11/22/22 12/27/27
f 231/284/241 4/25/25 5/29/29
f 239/285/242 12/27/27 13/2/2
f 233/271/230 232/270/229 5/29/29
f 233/271/230 6/4/4 7/6/6
f 227/276/233 226/273/231 1/31/31
f 234/275/232 7/6/6 8/11/11
f 227/276/233 241/7/7 242/12/12
f 235/277/234 8/11/11 9/15/15
f 228/278/235 242/12/12 2/17/17
