# Blender 4.2.2 LTS
# www.blender.org
mtllib fencer.mtl
o 0CC3_728a4
v 0.000002 -12.572562 12.572562
v 0.000001 4.190854 4.190854
v -0.000000 6.286281 -2.095427
v -0.000001 8.381708 -8.381708
v 4.190854 -6.286281 -0.000000
v -4.190854 -6.286281 0.000001
v -5.448110 -6.286281 3.771770
v 5.448111 -6.286281 3.771768
v -13.829819 -0.000000 -3.352681
v 13.829819 -0.000000 -3.352685
v -2.095427 -0.000000 0.000000
v 2.095427 0.000000 -0.000000
v -4.190854 6.286281 0.000000
v 4.190854 6.286281 -0.000001
vn -0.9370 0.1562 0.3123
vn -0.9300 0.3487 0.1162
vn -0.9487 -0.0000 0.3162
vn 0.9370 0.1562 0.3123
vn 0.9300 0.3487 0.1162
vn -0.4801 0.2958 0.8258
vn -0.0000 0.7071 -0.7071
vn 0.4976 -0.8514 -0.1659
vn -0.4976 -0.8514 -0.1659
vn -0.0000 0.3162 0.9487
vn 0.4801 0.2958 0.8258
vn 0.9487 -0.0000 0.3162
vn -0.0000 -0.7071 -0.7071
vn -0.3285 -0.0000 -0.9445
vn 0.3285 -0.0000 -0.9445
vt 0.156238 0.843791
vt 0.218738 0.781291
vt 0.531238 0.468791
vt 0.281238 0.718791
vt 0.093738 0.906291
s 0
usemtl color_22
f 1/1/1 2/1/1 11/1/1
f 11/1/2 3/1/2 4/1/2
f 5/1/3 8/1/3 14/1/3
usemtl color_33
f 12/2/4 2/2/4 1/2/4
f 4/2/5 3/2/5 12/2/5
f 13/2/6 9/2/6 7/2/6
usemtl color_88
f 2/3/7 12/3/7 11/3/7
f 5/3/8 10/3/8 8/3/8
f 7/3/9 9/3/9 6/3/9
usemtl color_44
f 11/4/10 12/4/10 3/4/10
f 8/4/11 10/4/11 14/4/11
f 13/4/12 7/4/12 6/4/12
usemtl color_11
f 11/5/13 12/5/13 1/5/13
f 14/5/14 10/5/14 5/5/14
f 6/5/15 9/5/15 13/5/15
f 11/5/13 4/5/13 12/5/13
